<?xml version="1.0" ?><svg id="Layer_1" style="enable-background:new 0 0 96 96;" version="1.1" viewBox="0 0 96 96" xml:space="preserve" xmlns="http://www.w3.org/2000/svg" xmlns:xlink="http://www.w3.org/1999/xlink"><style type="text/css">
	.st0{fill:none;stroke:#000000;stroke-width:4;stroke-miterlimit:10;}
</style><g><path d="M87,9v67.4L48.8,86.6c-0.1,0-0.4,0.1-0.8,0.1c-0.5,0-0.8,0-0.8-0.1L9,76.4V9h36.6h4.9H87 M90.6,3H50.4c-1.3,0-3.6,0-4.9,0   H5.4C4.1,3,3,4.1,3,5.4v73.1c0,1.3,1.1,2.7,2.4,3.1l40.3,10.7c0.7,0.2,1.5,0.3,2.4,0.3s1.7-0.1,2.4-0.3l40.3-10.7   c1.3-0.3,2.4-1.7,2.4-3.1V5.4C93,4.1,91.9,3,90.6,3L90.6,3z"/></g><line class="st0" x1="3" x2="93" y1="18" y2="18"/><g><path class="st0" d="M4,70l41.4,11.3c1.4,0.4,3.7,0.4,5.1,0L92,70"/></g><g><path d="M11,51.7c0-2.3,1.9-3.5,6.5-3.9c-0.1-1-0.6-1.6-1.8-1.6c-1,0-1.9,0.4-3,1l-1.2-2.1c1.5-0.8,3.1-1.4,4.9-1.4   c3,0,4.6,1.6,4.6,4.9v6.2h-2.8l-0.2-1.1h-0.1c-1,0.8-2,1.4-3.4,1.4C12.3,55,11,53.6,11,51.7z M17.5,51.6v-1.9   c-2.4,0.3-3.2,1-3.2,1.8c0,0.7,0.5,1,1.3,1C16.4,52.5,16.9,52.2,17.5,51.6z"/><path d="M23.1,43.9h2.8l0.2,1.4h0.1c1-0.9,2.1-1.6,3.7-1.6c2.5,0,3.6,1.7,3.6,4.4v6.7h-3.4v-6.3c0-1.6-0.4-2-1.4-2   c-0.9,0-1.4,0.4-2.1,1v7.3h-3.4V43.9z"/><path d="M35.1,49.3c0-3.5,2.4-5.7,4.8-5.7c1.3,0,2,0.4,2.8,1.1l-0.1-1.7v-3.7h3.4v15.3h-2.8L43,53.7h-0.1c-0.8,0.8-2,1.3-3.1,1.3   C37,55,35.1,52.9,35.1,49.3z M42.6,51.4V47c-0.6-0.5-1.3-0.7-1.9-0.7c-1.1,0-2.1,1-2.1,3c0,2.1,0.8,3.1,2.1,3.1   C41.5,52.4,42.1,52.1,42.6,51.4z"/><path d="M48.4,43.9h2.8l0.2,1.9h0.1c0.8-1.5,2.1-2.2,3.3-2.2c0.7,0,1,0.1,1.4,0.2l-0.6,2.8c-0.4-0.1-0.8-0.2-1.3-0.2   c-0.9,0-1.9,0.5-2.5,2v6.3h-3.4V43.9z"/><path d="M56.1,49.3c0-3.6,2.7-5.7,5.6-5.7c2.9,0,5.6,2.1,5.6,5.7c0,3.6-2.7,5.7-5.6,5.7C58.8,55,56.1,52.9,56.1,49.3z M63.8,49.3   c0-1.9-0.7-3.1-2.1-3.1c-1.4,0-2.1,1.2-2.1,3.1c0,1.9,0.7,3.1,2.1,3.1C63.1,52.4,63.8,51.2,63.8,49.3z"/><path d="M68.7,40.7c0-1,0.8-1.7,2-1.7c1.2,0,2,0.7,2,1.7c0,1-0.8,1.7-2,1.7C69.5,42.3,68.7,41.6,68.7,40.7z M69,43.9h3.4v10.8H69   V43.9z"/><path d="M74.1,49.3c0-3.5,2.4-5.7,4.8-5.7c1.3,0,2,0.4,2.8,1.1l-0.1-1.7v-3.7H85v15.3h-2.8L82,53.7h-0.1c-0.8,0.8-2,1.3-3.1,1.3   C75.9,55,74.1,52.9,74.1,49.3z M81.6,51.4V47c-0.6-0.5-1.3-0.7-1.9-0.7c-1.1,0-2.1,1-2.1,3c0,2.1,0.8,3.1,2.1,3.1   C80.4,52.4,81,52.1,81.6,51.4z"/></g></svg>